<svg xmlns="http://www.w3.org/2000/svg" xmlns:xlink="http://www.w3.org/1999/xlink" width="50" zoomAndPan="magnify" viewBox="0 0 37.5 37.499999" height="50" preserveAspectRatio="xMidYMid meet" version="1.0"><defs><clipPath id="a1f62f9179"><path d="M 12 5 L 23 5 L 23 32 L 12 32 Z M 12 5 " clip-rule="nonzero"/></clipPath><clipPath id="792480e582"><path d="M 1.535156 11.425781 L 18.414062 3.84375 L 28.726562 26.800781 L 11.84375 34.378906 Z M 1.535156 11.425781 " clip-rule="nonzero"/></clipPath><clipPath id="76f286afc2"><path d="M 18.414062 3.84375 L 1.535156 11.425781 L 11.84375 34.378906 L 28.726562 26.800781 Z M 18.414062 3.84375 " clip-rule="nonzero"/></clipPath><clipPath id="3c2494d308"><path d="M 18.414062 3.84375 L 1.535156 11.425781 L 11.84375 34.378906 L 28.726562 26.800781 Z M 18.414062 3.84375 " clip-rule="nonzero"/></clipPath><clipPath id="1d6c636716"><path d="M 11 6 L 16 6 L 16 14 L 11 14 Z M 11 6 " clip-rule="nonzero"/></clipPath><clipPath id="1dab8c37aa"><path d="M 1.535156 11.425781 L 18.414062 3.84375 L 28.726562 26.800781 L 11.84375 34.378906 Z M 1.535156 11.425781 " clip-rule="nonzero"/></clipPath><clipPath id="f875946423"><path d="M 18.414062 3.84375 L 1.535156 11.425781 L 11.84375 34.378906 L 28.726562 26.800781 Z M 18.414062 3.84375 " clip-rule="nonzero"/></clipPath><clipPath id="f7be7e5d95"><path d="M 18.414062 3.84375 L 1.535156 11.425781 L 11.84375 34.378906 L 28.726562 26.800781 Z M 18.414062 3.84375 " clip-rule="nonzero"/></clipPath><clipPath id="9f9fb4b751"><path d="M 10 25 L 15 25 L 15 32 L 10 32 Z M 10 25 " clip-rule="nonzero"/></clipPath><clipPath id="f119e325fa"><path d="M 1.535156 11.425781 L 18.414062 3.84375 L 28.726562 26.800781 L 11.84375 34.378906 Z M 1.535156 11.425781 " clip-rule="nonzero"/></clipPath><clipPath id="1e2fabef3b"><path d="M 18.414062 3.84375 L 1.535156 11.425781 L 11.84375 34.378906 L 28.726562 26.800781 Z M 18.414062 3.84375 " clip-rule="nonzero"/></clipPath><clipPath id="cb3977e8c5"><path d="M 18.414062 3.84375 L 1.535156 11.425781 L 11.84375 34.378906 L 28.726562 26.800781 Z M 18.414062 3.84375 " clip-rule="nonzero"/></clipPath></defs><g clip-path="url(#a1f62f9179)"><g clip-path="url(#792480e582)"><g clip-path="url(#76f286afc2)"><g clip-path="url(#3c2494d308)"><path fill="#000000" d="M 13.53125 6.195312 C 13.53125 6.195312 18.472656 4.054688 20.386719 8.492188 C 22.304688 12.933594 23.164062 17.234375 22.675781 20.066406 C 22.183594 22.898438 20.976562 30.277344 16.449219 31.621094 C 16.449219 31.621094 14.140625 32.117188 12.089844 31.8125 L 15.445312 25.464844 C 15.445312 25.464844 17.40625 25.738281 17.789062 24.027344 C 18.167969 22.320312 18.496094 15.027344 18.496094 15.027344 C 18.496094 15.027344 18.464844 12.738281 16.242188 12.738281 Z M 13.53125 6.195312 " fill-opacity="1" fill-rule="nonzero"/></g></g></g></g><g clip-path="url(#1d6c636716)"><g clip-path="url(#1dab8c37aa)"><g clip-path="url(#f875946423)"><g clip-path="url(#f7be7e5d95)"><path fill="#000000" d="M 12.957031 6.453125 C 12.957031 6.453125 12.519531 6.496094 11.988281 7.195312 C 11.460938 7.894531 11.605469 8.214844 11.605469 8.214844 L 13.519531 12.652344 C 13.519531 12.652344 13.828125 12.824219 14.199219 12.964844 C 14.566406 13.105469 15.570312 13.117188 15.582031 12.804688 C 15.59375 12.492188 12.957031 6.453125 12.957031 6.453125 Z M 12.957031 6.453125 " fill-opacity="1" fill-rule="nonzero"/></g></g></g></g><g clip-path="url(#9f9fb4b751)"><g clip-path="url(#f119e325fa)"><g clip-path="url(#1e2fabef3b)"><g clip-path="url(#cb3977e8c5)"><path fill="#000000" d="M 14.804688 25.1875 L 13.050781 25.082031 C 13.050781 25.082031 12.703125 25.160156 12.335938 25.707031 C 11.96875 26.257812 10.238281 29.570312 10.238281 29.570312 C 10.238281 29.570312 9.964844 30.152344 10.292969 30.542969 C 10.621094 30.933594 11.371094 31.75 11.371094 31.75 Z M 14.804688 25.1875 " fill-opacity="1" fill-rule="nonzero"/></g></g></g></g></svg>