<svg xmlns="http://www.w3.org/2000/svg" xmlns:xlink="http://www.w3.org/1999/xlink" width="50" zoomAndPan="magnify" viewBox="0 0 37.5 37.499999" height="50" preserveAspectRatio="xMidYMid meet" version="1.0"><defs><clipPath id="43b81b7cee"><path d="M 12 5 L 23 5 L 23 33 L 12 33 Z M 12 5 " clip-rule="nonzero"/></clipPath><clipPath id="8a6e0f48c7"><path d="M 1.535156 11.425781 L 18.414062 3.84375 L 28.726562 26.800781 L 11.84375 34.378906 Z M 1.535156 11.425781 " clip-rule="nonzero"/></clipPath><clipPath id="5af082bd01"><path d="M 18.414062 3.84375 L 1.535156 11.425781 L 11.84375 34.378906 L 28.726562 26.800781 Z M 18.414062 3.84375 " clip-rule="nonzero"/></clipPath><clipPath id="36ffbc1897"><path d="M 11 6 L 16 6 L 16 14 L 11 14 Z M 11 6 " clip-rule="nonzero"/></clipPath><clipPath id="be83f549cd"><path d="M 1.535156 11.425781 L 18.414062 3.84375 L 28.726562 26.800781 L 11.84375 34.378906 Z M 1.535156 11.425781 " clip-rule="nonzero"/></clipPath><clipPath id="639ea3f68a"><path d="M 18.414062 3.84375 L 1.535156 11.425781 L 11.84375 34.378906 L 28.726562 26.800781 Z M 18.414062 3.84375 " clip-rule="nonzero"/></clipPath><clipPath id="697c8f6482"><path d="M 10 25 L 15 25 L 15 32 L 10 32 Z M 10 25 " clip-rule="nonzero"/></clipPath><clipPath id="34aa8ca90d"><path d="M 1.535156 11.425781 L 18.414062 3.84375 L 28.726562 26.800781 L 11.84375 34.378906 Z M 1.535156 11.425781 " clip-rule="nonzero"/></clipPath><clipPath id="0ea2af3506"><path d="M 18.414062 3.84375 L 1.535156 11.425781 L 11.84375 34.378906 L 28.726562 26.800781 Z M 18.414062 3.84375 " clip-rule="nonzero"/></clipPath></defs><g clip-path="url(#43b81b7cee)"><g clip-path="url(#8a6e0f48c7)"><g clip-path="url(#5af082bd01)"><path fill="#de903b" d="M 13.53125 6.195312 C 13.53125 6.195312 18.472656 4.054688 20.40625 8.53125 C 22.339844 13.007812 23.210938 17.339844 22.730469 20.191406 C 22.246094 23.042969 21.0625 30.46875 16.53125 31.808594 C 16.53125 31.808594 14.222656 32.300781 12.167969 31.984375 L 15.507812 25.605469 C 15.507812 25.605469 17.472656 25.882812 17.847656 24.164062 C 18.226562 22.445312 18.53125 15.105469 18.53125 15.105469 C 18.53125 15.105469 18.492188 12.800781 16.265625 12.792969 Z M 13.53125 6.195312 " fill-opacity="1" fill-rule="nonzero"/></g></g></g><g clip-path="url(#36ffbc1897)"><g clip-path="url(#be83f549cd)"><g clip-path="url(#639ea3f68a)"><path fill="#de903b" d="M 12.957031 6.453125 C 12.957031 6.453125 12.519531 6.496094 11.992188 7.199219 C 11.464844 7.898438 11.609375 8.222656 11.609375 8.222656 L 13.542969 12.699219 C 13.542969 12.699219 13.847656 12.871094 14.21875 13.015625 C 14.589844 13.15625 15.59375 13.171875 15.605469 12.855469 C 15.617188 12.542969 12.957031 6.453125 12.957031 6.453125 Z M 12.957031 6.453125 " fill-opacity="1" fill-rule="nonzero"/></g></g></g><g clip-path="url(#697c8f6482)"><g clip-path="url(#34aa8ca90d)"><g clip-path="url(#0ea2af3506)"><path fill="#de903b" d="M 14.863281 25.320312 L 13.109375 25.210938 C 13.109375 25.210938 12.761719 25.289062 12.394531 25.839844 C 12.03125 26.390625 10.308594 29.722656 10.308594 29.722656 C 10.308594 29.722656 10.035156 30.308594 10.363281 30.703125 C 10.695312 31.097656 11.449219 31.921875 11.449219 31.921875 Z M 14.863281 25.320312 " fill-opacity="1" fill-rule="nonzero"/></g></g></g></svg>