<svg xmlns="http://www.w3.org/2000/svg" xmlns:xlink="http://www.w3.org/1999/xlink" width="100" zoomAndPan="magnify" viewBox="0 0 75 74.999997" height="100" preserveAspectRatio="xMidYMid meet" version="1.0"><defs><clipPath id="e28e76702f"><path d="M 24 11 L 47 11 L 47 66 L 24 66 Z M 24 11 " clip-rule="nonzero"/></clipPath><clipPath id="c478a3f2b6"><path d="M 3.109375 23.15625 L 37.316406 7.792969 L 58.519531 55 L 24.3125 70.363281 Z M 3.109375 23.15625 " clip-rule="nonzero"/></clipPath><clipPath id="64ebc73699"><path d="M 37.316406 7.792969 L 3.109375 23.15625 L 24.3125 70.363281 L 58.519531 55 Z M 37.316406 7.792969 " clip-rule="nonzero"/></clipPath><clipPath id="85ad46b8f2"><path d="M 37.316406 7.792969 L 3.109375 23.15625 L 24.3125 70.363281 L 58.519531 55 Z M 37.316406 7.792969 " clip-rule="nonzero"/></clipPath><clipPath id="636826c22b"><path d="M 23 13 L 32 13 L 32 27 L 23 27 Z M 23 13 " clip-rule="nonzero"/></clipPath><clipPath id="61cee3f39e"><path d="M 3.109375 23.15625 L 37.316406 7.792969 L 58.519531 55 L 24.3125 70.363281 Z M 3.109375 23.15625 " clip-rule="nonzero"/></clipPath><clipPath id="04aefc7666"><path d="M 37.316406 7.792969 L 3.109375 23.15625 L 24.3125 70.363281 L 58.519531 55 Z M 37.316406 7.792969 " clip-rule="nonzero"/></clipPath><clipPath id="84d4a9d83f"><path d="M 37.316406 7.792969 L 3.109375 23.15625 L 24.3125 70.363281 L 58.519531 55 Z M 37.316406 7.792969 " clip-rule="nonzero"/></clipPath><clipPath id="a494cf6ac1"><path d="M 20 51 L 31 51 L 31 65 L 20 65 Z M 20 51 " clip-rule="nonzero"/></clipPath><clipPath id="7f37288a59"><path d="M 3.109375 23.15625 L 37.316406 7.792969 L 58.519531 55 L 24.3125 70.363281 Z M 3.109375 23.15625 " clip-rule="nonzero"/></clipPath><clipPath id="51b051eade"><path d="M 37.316406 7.792969 L 3.109375 23.15625 L 24.3125 70.363281 L 58.519531 55 Z M 37.316406 7.792969 " clip-rule="nonzero"/></clipPath><clipPath id="3ae9c77b3c"><path d="M 37.316406 7.792969 L 3.109375 23.15625 L 24.3125 70.363281 L 58.519531 55 Z M 37.316406 7.792969 " clip-rule="nonzero"/></clipPath></defs><g clip-path="url(#e28e76702f)"><g clip-path="url(#c478a3f2b6)"><g clip-path="url(#64ebc73699)"><g clip-path="url(#85ad46b8f2)"><path fill="#000000" d="M 27.425781 12.558594 C 27.425781 12.558594 37.4375 8.222656 41.382812 17.351562 C 45.328125 26.480469 47.121094 35.3125 46.15625 41.117188 C 45.191406 46.921875 42.820312 62.046875 33.628906 64.753906 C 33.628906 64.753906 28.949219 65.75 24.773438 65.097656 L 31.523438 52.113281 C 31.523438 52.113281 35.511719 52.691406 36.269531 49.191406 C 37.027344 45.691406 37.609375 30.738281 37.609375 30.738281 C 37.609375 30.738281 37.519531 26.039062 33.003906 26.011719 Z M 27.425781 12.558594 " fill-opacity="1" fill-rule="nonzero"/></g></g></g></g><g clip-path="url(#636826c22b)"><g clip-path="url(#61cee3f39e)"><g clip-path="url(#04aefc7666)"><g clip-path="url(#84d4a9d83f)"><path fill="#000000" d="M 26.261719 13.082031 C 26.261719 13.082031 25.371094 13.167969 24.300781 14.59375 C 23.234375 16.023438 23.53125 16.679688 23.53125 16.679688 L 27.476562 25.808594 C 27.476562 25.808594 28.101562 26.160156 28.851562 26.453125 C 29.605469 26.746094 31.640625 26.78125 31.664062 26.140625 C 31.683594 25.5 26.261719 13.082031 26.261719 13.082031 Z M 26.261719 13.082031 " fill-opacity="1" fill-rule="nonzero"/></g></g></g></g><g clip-path="url(#a494cf6ac1)"><g clip-path="url(#7f37288a59)"><g clip-path="url(#51b051eade)"><g clip-path="url(#3ae9c77b3c)"><path fill="#000000" d="M 30.21875 51.535156 L 26.652344 51.296875 C 26.652344 51.296875 25.949219 51.457031 25.210938 52.578125 C 24.472656 53.703125 20.992188 60.476562 20.992188 60.476562 C 20.992188 60.476562 20.441406 61.671875 21.113281 62.476562 C 21.785156 63.28125 23.316406 64.964844 23.316406 64.964844 Z M 30.21875 51.535156 " fill-opacity="1" fill-rule="nonzero"/></g></g></g></g></svg>